<?xml version="1.0" standalone="no"?>
<!DOCTYPE svg PUBLIC "-//W3C//DTD SVG 20010904//EN"
 "http://www.w3.org/TR/2001/REC-SVG-20010904/DTD/svg10.dtd">
<svg version="1.0" xmlns="http://www.w3.org/2000/svg"
 width="500.000000pt" height="500.000000pt" viewBox="0 0 500.000000 500.000000"
 preserveAspectRatio="xMidYMid meet">
<metadata>
Created by potrace 1.14, written by Peter Selinger 2001-2017
</metadata>
<g transform="translate(0.000000,500.000000) scale(0.100000,-0.100000)"
fill="#000000" stroke="none">
<path d="M2960 4475 c-45 -22 -130 -101 -480 -448 -234 -232 -555 -551 -715
-709 l-289 -287 104 -49 c58 -27 282 -136 499 -241 217 -105 396 -190 397
-188 4 3 13 25 453 1020 325 734 316 707 264 807 -57 109 -136 141 -233 95z
m-565 -1239 c152 -72 190 -244 81 -372 -36 -44 -105 -74 -166 -74 -27 0 -50 2
-50 5 0 3 9 23 20 45 11 22 20 46 20 54 0 11 9 13 39 9 53 -7 100 34 112 98 4
24 11 56 15 72 6 25 4 27 -22 27 -33 0 -138 51 -172 83 -23 22 -24 22 -38 3
-8 -11 -14 -23 -14 -27 0 -4 -13 -21 -30 -37 -41 -41 -43 -110 -4 -149 19 -19
23 -28 14 -37 -24 -24 -51 -9 -67 39 -5 16 -15 31 -22 33 -10 3 -10 0 -2 -16
6 -11 11 -30 11 -41 0 -11 12 -29 26 -40 19 -15 24 -26 19 -41 -8 -26 -17 -25
-42 3 -80 87 -77 220 8 312 69 75 172 95 264 51z"/>
<path d="M3046 3438 c-13 -29 -77 -161 -141 -293 -64 -132 -130 -267 -145
-300 -15 -33 -60 -125 -99 -205 -74 -151 -77 -160 -61 -160 5 0 110 -45 232
-99 123 -54 320 -142 438 -194 118 -52 394 -174 613 -271 221 -98 411 -176
427 -176 81 0 198 77 220 146 14 40 -1 102 -35 152 -13 19 -144 157 -292 306
-147 149 -463 468 -700 709 l-432 437 -25 -52z"/>
<path d="M593 3159 c-23 -12 -60 -41 -83 -65 -34 -38 -40 -50 -40 -89 0 -95
-77 -10 1024 -1123 241 -244 439 -442 440 -440 17 21 475 985 472 993 -2 5
-172 84 -377 174 -206 91 -580 256 -833 368 -505 224 -512 226 -603 182z"/>
<path d="M2468 2243 c-31 -71 -143 -324 -248 -563 -406 -917 -440 -995 -440
-1020 0 -72 56 -175 113 -211 18 -10 49 -19 70 -19 81 0 114 28 624 533 268
265 588 581 711 702 122 120 221 223 220 227 -2 5 -120 65 -263 134 -493 239
-550 266 -633 305 -45 22 -86 39 -90 39 -5 0 -33 -57 -64 -127z"/>
</g>
</svg>
